<svg width="20" height="21" viewBox="0 0 20 21" fill="none" xmlns="http://www.w3.org/2000/svg">
<path d="M17.5001 6.10833C17.4834 6.10833 17.4584 6.10833 17.4334 6.10833C13.0251 5.66667 8.62505 5.5 4.26672 5.94167L2.56672 6.10833C2.21672 6.14167 1.90839 5.89167 1.87505 5.54167C1.84172 5.19167 2.09172 4.89167 2.43339 4.85833L4.13339 4.69167C8.56672 4.24167 13.0584 4.41667 17.5584 4.85833C17.9001 4.89167 18.1501 5.2 18.1167 5.54167C18.0917 5.86667 17.8167 6.10833 17.5001 6.10833Z" fill="#7E92A2"/>
<path d="M7.08338 5.26666C7.05005 5.26666 7.01672 5.26666 6.97505 5.25832C6.64172 5.19999 6.40838 4.87499 6.46672 4.54166L6.65005 3.44999C6.78338 2.64999 6.96672 1.54166 8.90838 1.54166H11.0917C13.0417 1.54166 13.225 2.69166 13.35 3.45832L13.5334 4.54166C13.5917 4.88332 13.3584 5.20832 13.025 5.25832C12.6834 5.31666 12.3584 5.08332 12.3084 4.74999L12.125 3.66666C12.0084 2.94166 11.9834 2.79999 11.1 2.79999H8.91672C8.03338 2.79999 8.01672 2.91666 7.89172 3.65832L7.70005 4.74166C7.65005 5.04999 7.38338 5.26666 7.08338 5.26666Z" fill="#7E92A2"/>
<path d="M12.675 19.4583H7.325C4.41666 19.4583 4.3 17.85 4.20833 16.55L3.66666 8.15833C3.64166 7.81667 3.90833 7.51667 4.25 7.49167C4.6 7.475 4.89166 7.73334 4.91666 8.075L5.45833 16.4667C5.55 17.7333 5.58333 18.2083 7.325 18.2083H12.675C14.425 18.2083 14.4583 17.7333 14.5417 16.4667L15.0833 8.075C15.1083 7.73334 15.4083 7.475 15.75 7.49167C16.0917 7.51667 16.3583 7.80833 16.3333 8.15833L15.7917 16.55C15.7 17.85 15.5833 19.4583 12.675 19.4583Z" fill="#7E92A2"/>
<path d="M11.3834 14.875H8.6084C8.26673 14.875 7.9834 14.5917 7.9834 14.25C7.9834 13.9083 8.26673 13.625 8.6084 13.625H11.3834C11.7251 13.625 12.0084 13.9083 12.0084 14.25C12.0084 14.5917 11.7251 14.875 11.3834 14.875Z" fill="#7E92A2"/>
<path d="M12.0834 11.5417H7.91675C7.57508 11.5417 7.29175 11.2583 7.29175 10.9167C7.29175 10.575 7.57508 10.2917 7.91675 10.2917H12.0834C12.4251 10.2917 12.7084 10.575 12.7084 10.9167C12.7084 11.2583 12.4251 11.5417 12.0834 11.5417Z" fill="#7E92A2"/>
</svg>
