<svg width="18" height="19" viewBox="0 0 18 19" fill="none" xmlns="http://www.w3.org/2000/svg">
<path d="M3.61667 15.7667C3.10833 15.7667 2.63333 15.5917 2.29167 15.2667C1.85833 14.8584 1.65 14.2417 1.725 13.575L2.03333 10.875C2.09167 10.3667 2.4 9.69169 2.75833 9.32502L9.6 2.08335C11.3083 0.27502 13.0917 0.225021 14.9 1.93335C16.7083 3.64169 16.7583 5.42502 15.05 7.23335L8.20833 14.475C7.85833 14.85 7.20833 15.2 6.7 15.2834L4.01667 15.7417C3.875 15.75 3.75 15.7667 3.61667 15.7667ZM12.275 1.92502C11.6333 1.92502 11.075 2.32502 10.5083 2.92502L3.66667 10.175C3.5 10.35 3.30833 10.7667 3.275 11.0084L2.96667 13.7084C2.93333 13.9834 3 14.2084 3.15 14.35C3.3 14.4917 3.525 14.5417 3.8 14.5L6.48333 14.0417C6.725 14 7.125 13.7834 7.29167 13.6084L14.1333 6.36669C15.1667 5.26669 15.5417 4.25002 14.0333 2.83335C13.3667 2.19169 12.7917 1.92502 12.275 1.92502Z" fill="#7E92A2"/>
<path d="M13.45 8.62502C13.4333 8.62502 13.4083 8.62502 13.3917 8.62502C10.7917 8.36669 8.7 6.39169 8.3 3.80835C8.25 3.46669 8.48333 3.15002 8.825 3.09169C9.16667 3.04169 9.48333 3.27502 9.54167 3.61669C9.85833 5.63335 11.4917 7.18335 13.525 7.38335C13.8667 7.41669 14.1167 7.72502 14.0833 8.06669C14.0417 8.38335 13.7667 8.62502 13.45 8.62502Z" fill="#7E92A2"/>
<path d="M16.5 18.4584H1.5C1.15833 18.4584 0.875 18.175 0.875 17.8334C0.875 17.4917 1.15833 17.2084 1.5 17.2084H16.5C16.8417 17.2084 17.125 17.4917 17.125 17.8334C17.125 18.175 16.8417 18.4584 16.5 18.4584Z" fill="#7E92A2"/>
</svg>
