<svg width="18" height="18" viewBox="0 0 18 18" fill="none" xmlns="http://www.w3.org/2000/svg">
<path d="M9.00008 12.125C7.27508 12.125 5.87508 10.725 5.87508 9.00002C5.87508 7.27502 7.27508 5.87501 9.00008 5.87501C10.7251 5.87501 12.1251 7.27502 12.1251 9.00002C12.1251 10.725 10.7251 12.125 9.00008 12.125ZM9.00008 7.12501C7.96675 7.12501 7.12508 7.96668 7.12508 9.00002C7.12508 10.0333 7.96675 10.875 9.00008 10.875C10.0334 10.875 10.8751 10.0333 10.8751 9.00002C10.8751 7.96668 10.0334 7.12501 9.00008 7.12501Z" fill="#7E92A2"/>
<path d="M11.6751 17.4917C11.5001 17.4917 11.3251 17.4667 11.1501 17.425C10.6334 17.2833 10.2001 16.9583 9.92508 16.5L9.82508 16.3333C9.33341 15.4833 8.65842 15.4833 8.16675 16.3333L8.07508 16.4917C7.80008 16.9583 7.36675 17.2917 6.85008 17.425C6.32508 17.5667 5.78342 17.4917 5.32508 17.2167L3.89175 16.3917C3.38341 16.1 3.01675 15.625 2.85841 15.05C2.70841 14.475 2.78341 13.8833 3.07508 13.375C3.31675 12.95 3.38342 12.5667 3.24175 12.325C3.10008 12.0833 2.74175 11.9417 2.25008 11.9417C1.03341 11.9417 0.041748 10.95 0.041748 9.73335V8.26668C0.041748 7.05001 1.03341 6.05835 2.25008 6.05835C2.74175 6.05835 3.10008 5.91668 3.24175 5.67502C3.38342 5.43335 3.32508 5.05002 3.07508 4.62502C2.78341 4.11668 2.70841 3.51668 2.85841 2.95001C3.00842 2.37501 3.37508 1.90002 3.89175 1.60835L5.33341 0.783348C6.27508 0.225015 7.51675 0.550015 8.08341 1.50835L8.18342 1.67501C8.67508 2.52501 9.35008 2.52501 9.84175 1.67501L9.93342 1.51668C10.5001 0.550015 11.7417 0.225015 12.6917 0.791682L14.1251 1.61668C14.6334 1.90835 15.0001 2.38335 15.1584 2.95835C15.3084 3.53335 15.2334 4.12502 14.9417 4.63335C14.7001 5.05835 14.6334 5.44168 14.7751 5.68335C14.9167 5.92502 15.2751 6.06668 15.7667 6.06668C16.9834 6.06668 17.9751 7.05835 17.9751 8.27502V9.74168C17.9751 10.9583 16.9834 11.95 15.7667 11.95C15.2751 11.95 14.9167 12.0917 14.7751 12.3333C14.6334 12.575 14.6917 12.9583 14.9417 13.3833C15.2334 13.8917 15.3167 14.4917 15.1584 15.0583C15.0084 15.6333 14.6417 16.1083 14.1251 16.4L12.6834 17.225C12.3667 17.4 12.0251 17.4917 11.6751 17.4917ZM9.00008 14.4083C9.74175 14.4083 10.4334 14.875 10.9084 15.7L11.0001 15.8583C11.1001 16.0333 11.2667 16.1583 11.4667 16.2083C11.6667 16.2583 11.8667 16.2333 12.0334 16.1333L13.4751 15.3C13.6917 15.175 13.8584 14.9667 13.9251 14.7167C13.9917 14.4667 13.9584 14.2083 13.8334 13.9917C13.3584 13.175 13.3001 12.3333 13.6667 11.6917C14.0334 11.05 14.7917 10.6833 15.7417 10.6833C16.2751 10.6833 16.7001 10.2583 16.7001 9.72501V8.25835C16.7001 7.73335 16.2751 7.30001 15.7417 7.30001C14.7917 7.30001 14.0334 6.93335 13.6667 6.29168C13.3001 5.65002 13.3584 4.80835 13.8334 3.99168C13.9584 3.77501 13.9917 3.51668 13.9251 3.26668C13.8584 3.01668 13.7001 2.81668 13.4834 2.68335L12.0417 1.85835C11.6834 1.64168 11.2084 1.76668 10.9917 2.13335L10.9001 2.29168C10.4251 3.11668 9.73342 3.58335 8.99175 3.58335C8.25008 3.58335 7.55841 3.11668 7.08341 2.29168L6.99175 2.12501C6.78342 1.77501 6.31675 1.65001 5.95842 1.85835L4.51675 2.69168C4.30008 2.81668 4.13341 3.02502 4.06675 3.27502C4.00008 3.52502 4.03341 3.78335 4.15841 4.00002C4.63342 4.81668 4.69175 5.65835 4.32508 6.30002C3.95841 6.94168 3.20008 7.30835 2.25008 7.30835C1.71675 7.30835 1.29175 7.73335 1.29175 8.26668V9.73335C1.29175 10.2583 1.71675 10.6917 2.25008 10.6917C3.20008 10.6917 3.95841 11.0583 4.32508 11.7C4.69175 12.3417 4.63342 13.1833 4.15841 14C4.03341 14.2167 4.00008 14.475 4.06675 14.725C4.13341 14.975 4.29175 15.175 4.50842 15.3083L5.95008 16.1333C6.12508 16.2417 6.33341 16.2667 6.52508 16.2167C6.72508 16.1667 6.89175 16.0333 7.00008 15.8583L7.09175 15.7C7.56675 14.8833 8.25841 14.4083 9.00008 14.4083Z" fill="#7E92A2"/>
</svg>
